<svg width="174" height="29" viewBox="0 0 174 29" fill="none" xmlns="http://www.w3.org/2000/svg">
<path d="M7.95882 0V8.33783H13.8466V11.6571H7.95882V21.6151C7.95882 23.749 9.10477 24.9344 11.041 24.9344H13.8466V28.2538H10.7249C6.69431 28.2538 4.12579 25.8038 4.12579 21.7337V11.6571H0.0556641V8.33783H4.12579V0H7.95882Z" fill="white"/>
<path d="M34.1178 21.775C33.4065 25.8845 29.8105 28.5716 24.9106 28.5716C18.7461 28.5716 14.9131 23.7112 14.9131 18.1789C14.9131 12.6073 18.3904 8.02344 24.5154 8.02344C30.6799 8.02344 33.9597 12.4097 33.9597 17.4677C33.9597 17.9814 33.9201 18.6137 33.8806 18.9693H18.667C18.9833 22.7232 21.4331 25.2918 24.9106 25.2918C27.8347 25.2918 29.7315 24.0273 30.2847 21.775H34.1178ZM18.7856 16.1637H30.0871C29.8501 13.121 27.7953 11.1057 24.5154 11.1057C21.3937 11.1057 19.3784 12.8443 18.7856 16.1637Z" fill="white"/>
<path d="M53.4814 15.4129V28.2555H49.6483V25.0152C48.6999 27.1491 46.171 28.5716 43.1677 28.5716C39.0976 28.5716 36.4106 26.1216 36.4106 22.5652C36.4106 18.7322 39.4533 16.3612 44.1556 16.3612H48.3047C49.2137 16.3612 49.6483 15.8871 49.6483 15.1759C49.6483 12.7653 47.9096 11.1057 44.8274 11.1057C42.0613 11.1057 40.046 12.8444 39.9274 14.8596H36.3711C36.6872 10.9476 40.2436 8.02344 44.946 8.02344C50.083 8.02344 53.4814 10.9871 53.4814 15.4129ZM49.6483 19.5225V19.0484H44.5113C41.9033 19.0484 40.204 20.3918 40.204 22.4862C40.204 24.3039 41.7056 25.5289 43.9185 25.5289C47.554 25.5289 49.6483 23.1975 49.6483 19.5225Z" fill="white"/>
<path d="M56.168 18.2975C56.168 12.8048 59.7639 8.02344 66.0469 8.02344C70.7098 8.02344 74.7404 10.7895 75.2936 15.2943H71.4605C71.105 13.0419 68.813 11.3823 66.1259 11.3823C62.1348 11.3823 60.161 14.4645 60.161 18.2975C60.161 22.1305 62.1763 25.2128 66.1259 25.2128C68.8525 25.2128 70.8678 23.7902 71.5001 21.5379H75.2936C74.6614 25.7265 71.105 28.5716 66.0469 28.5716C59.7639 28.5716 56.168 23.7902 56.168 18.2975Z" fill="white"/>
<path d="M77.7422 0H81.5752V11.8547C82.6441 9.36524 85.0151 8.0217 87.9787 8.0217C92.4835 8.0217 95.4076 11.262 95.4076 16.0038V28.2538H91.5747V16.7547C91.5747 13.5934 89.7174 11.4596 86.9118 11.4596C83.79 11.4596 81.5772 13.9886 81.5772 17.466V28.2538H77.7441L77.7422 0Z" fill="white"/>
<path d="M122.555 15.4129V28.2555H118.722V25.0152C117.773 27.1491 115.244 28.5716 112.241 28.5716C108.171 28.5716 105.484 26.1216 105.484 22.5652C105.484 18.7322 108.527 16.3612 113.229 16.3612H117.378C118.287 16.3612 118.722 15.8871 118.722 15.1759C118.722 12.7653 116.983 11.1057 113.901 11.1057C111.135 11.1057 109.119 12.8444 109.001 14.8596H105.444C105.761 10.9476 109.317 8.02344 114.019 8.02344C119.154 8.02344 122.555 10.9871 122.555 15.4129ZM118.722 19.5225V19.0484H113.585C110.977 19.0484 109.277 20.3918 109.277 22.4862C109.277 24.3039 110.779 25.5289 112.992 25.5289C116.627 25.5289 118.72 23.1975 118.72 19.5225H118.722Z" fill="white"/>
<path d="M129.823 25.2901V28.2538H125.99V0H129.823V11.262C130.969 9.32573 133.38 8.0217 136.107 8.0217C142.192 8.0217 145.63 12.3684 145.63 18.2958C145.63 24.2231 142.192 28.5699 136.066 28.5699C133.421 28.5699 130.969 27.2658 129.823 25.2901ZM141.757 18.2958C141.757 14.1467 139.307 11.3805 135.633 11.3805C131.917 11.3805 129.507 14.1467 129.507 18.2958C129.507 22.4449 131.917 25.211 135.633 25.211C139.307 25.211 141.757 22.4449 141.757 18.2958Z" fill="white"/>
<path d="M148.24 0H152.072V28.2538H148.24V0Z" fill="white"/>
<path d="M174 21.775C173.289 25.8845 169.693 28.5716 164.795 28.5716C158.63 28.5716 154.797 23.7112 154.797 18.1789C154.797 12.6073 158.275 8.02344 164.4 8.02344C170.562 8.02344 173.843 12.4097 173.843 17.4677C173.843 17.9814 173.802 18.6137 173.763 18.9693H158.55C158.865 22.7232 161.316 25.2918 164.792 25.2918C167.716 25.2918 169.612 24.0273 170.165 21.775H174ZM158.669 16.1637H169.974C169.739 13.121 167.682 11.1057 164.404 11.1057C161.28 11.1057 159.263 12.8443 158.669 16.1637Z" fill="white"/>
<path d="M102.518 10.5625V14.8698H98.29V10.5625H102.518ZM102.518 23.9979V28.2557H98.29V23.988L102.518 23.9979Z" fill="white"/>
</svg>
