<svg width="223" height="44" viewBox="0 0 223 44" fill="none" xmlns="http://www.w3.org/2000/svg">
<path d="M47.2898 3.60711C43.6882 1.922 39.8372 0.697336 35.8111 0C35.3166 0.89396 34.7389 2.09636 34.3406 3.05286C30.0608 2.40922 25.8202 2.40922 21.619 3.05286C21.2208 2.09636 20.6301 0.89396 20.1312 0C16.1007 0.697336 12.2452 1.9265 8.64362 3.61604C1.37912 14.5936 -0.590169 25.2986 0.394476 35.8515C5.21268 39.4496 9.88209 41.6354 14.4727 43.0657C15.6062 41.5057 16.617 39.8475 17.4879 38.0998C15.8293 37.4696 14.2408 36.6919 12.7398 35.789C13.138 35.494 13.5275 35.1856 13.9038 34.8682C23.0588 39.1502 33.0059 39.1502 42.0515 34.8682C42.4323 35.1856 42.8217 35.494 43.2156 35.789C41.7102 36.6963 40.1173 37.474 38.4587 38.1043C39.3295 39.8475 40.3361 41.5102 41.4739 43.0701C46.0689 41.6398 50.7427 39.4542 55.5609 35.8515C56.7162 23.618 53.5872 13.0114 47.2898 3.60711ZM18.7351 29.3616C15.9869 29.3616 13.7331 26.7959 13.7331 23.6716C13.7331 20.5473 15.9388 17.9772 18.7351 17.9772C21.5316 17.9772 23.7853 20.5428 23.7371 23.6716C23.7415 26.7959 21.5316 29.3616 18.7351 29.3616ZM37.2202 29.3616C34.472 29.3616 32.2182 26.7959 32.2182 23.6716C32.2182 20.5473 34.4238 17.9772 37.2202 17.9772C40.0166 17.9772 42.2704 20.5428 42.2222 23.6716C42.2222 26.7959 40.0166 29.3616 37.2202 29.3616Z" fill="white"/>
<path d="M74.9248 10.9883H86.8715C89.7515 10.9883 92.1845 11.4486 94.1805 12.365C96.1711 13.2812 97.6637 14.5595 98.6529 16.1955C99.6414 17.8314 100.14 19.7042 100.14 21.8139C100.14 23.8789 99.6239 25.7517 98.5912 27.4278C97.5585 29.1084 95.9873 30.436 93.8739 31.4148C91.7604 32.3937 89.1428 32.8853 86.0142 32.8853H74.9248V10.9883ZM85.8914 27.3206C87.8302 27.3206 89.3228 26.8244 90.3639 25.8366C91.4058 24.8443 91.9267 23.4945 91.9267 21.7826C91.9267 20.1958 91.4622 18.9309 90.5348 17.9833C89.6073 17.0357 88.2024 16.5575 86.3247 16.5575H82.5874V27.3206H85.8914Z" fill="white"/>
<path d="M118.026 32.8591C116.372 32.4211 114.879 31.7863 113.554 30.9505V25.7567C114.556 26.5478 115.899 27.2005 117.584 27.7144C119.269 28.224 120.897 28.4787 122.472 28.4787C123.207 28.4787 123.763 28.3804 124.139 28.1837C124.516 27.9871 124.704 27.7502 124.704 27.4776C124.704 27.1647 124.604 26.9054 124.398 26.6953C124.192 26.4853 123.794 26.3109 123.203 26.1634L119.527 25.3187C117.422 24.8181 115.93 24.1253 115.042 23.2358C114.153 22.3508 113.711 21.1886 113.711 19.7494C113.711 18.5381 114.096 17.4878 114.875 16.5893C115.65 15.6909 116.752 14.9981 118.183 14.5109C119.615 14.0193 121.286 13.7734 123.207 13.7734C124.923 13.7734 126.494 13.9611 127.925 14.3366C129.356 14.7121 130.538 15.1903 131.479 15.7758V20.6881C130.515 20.1025 129.413 19.6422 128.153 19.2935C126.896 18.9493 125.606 18.7795 124.275 18.7795C122.354 18.7795 121.396 19.1147 121.396 19.7807C121.396 20.0936 121.545 20.326 121.842 20.4824C122.139 20.6389 122.686 20.7998 123.479 20.9697L126.542 21.5328C128.542 21.886 130.034 22.5073 131.014 23.3922C131.995 24.2773 132.485 25.5869 132.485 27.3211C132.485 29.2207 131.675 30.727 130.052 31.8445C128.428 32.9619 126.126 33.5206 123.142 33.5206C121.387 33.5161 119.68 33.2971 118.026 32.8591Z" fill="white"/>
<path d="M139.716 32.2015C137.961 31.3254 136.635 30.1365 135.751 28.6347C134.867 27.1328 134.421 25.4433 134.421 23.566C134.421 21.6888 134.88 20.0081 135.799 18.5287C136.718 17.0492 138.066 15.887 139.843 15.0423C141.619 14.1975 143.742 13.7773 146.215 13.7773C149.278 13.7773 151.82 14.4344 153.842 15.7485V21.4742C153.129 20.9736 152.297 20.5668 151.348 20.254C150.398 19.9411 149.383 19.7846 148.297 19.7846C146.398 19.7846 144.915 20.1377 143.843 20.8484C142.77 21.5591 142.232 22.4843 142.232 23.633C142.232 24.7594 142.753 25.6802 143.794 26.4043C144.836 27.1239 146.346 27.486 148.328 27.486C149.348 27.486 150.354 27.334 151.348 27.0345C152.337 26.7306 153.19 26.3596 153.903 25.9215V31.4595C151.659 32.8361 149.055 33.5245 146.092 33.5245C143.598 33.5156 141.471 33.0775 139.716 32.2015Z" fill="white"/>
<path d="M161.483 32.1987C159.715 31.3227 158.367 30.1248 157.439 28.6006C156.511 27.0764 156.043 25.378 156.043 23.5006C156.043 21.6234 156.507 19.9472 157.439 18.4767C158.371 17.0062 159.71 15.853 161.47 15.0171C163.224 14.1813 165.32 13.7656 167.749 13.7656C170.178 13.7656 172.274 14.1813 174.029 15.0171C175.784 15.853 177.123 16.9973 178.042 18.4588C178.961 19.9205 179.42 21.5966 179.42 23.4962C179.42 25.3735 178.961 27.072 178.042 28.5961C177.123 30.1203 175.779 31.3182 174.011 32.1942C172.243 33.0703 170.156 33.5083 167.745 33.5083C165.333 33.5083 163.246 33.0747 161.483 32.1987ZM170.791 26.6473C171.535 25.8875 171.911 24.8818 171.911 23.6303C171.911 22.3788 171.539 21.382 170.791 20.6445C170.047 19.9025 169.031 19.5316 167.745 19.5316C166.436 19.5316 165.412 19.9025 164.664 20.6445C163.92 21.3865 163.548 22.3788 163.548 23.6303C163.548 24.8818 163.92 25.8875 164.664 26.6473C165.408 27.4072 166.436 27.7916 167.745 27.7916C169.031 27.7871 170.047 27.4072 170.791 26.6473Z" fill="white"/>
<path d="M197.827 14.9306V21.6888C197.049 21.1658 196.042 20.9065 194.795 20.9065C193.162 20.9065 191.902 21.4117 191.026 22.4218C190.147 23.432 189.709 25.0053 189.709 27.1328V32.8899H182.204V14.5864H189.557V20.406C189.963 18.2784 190.624 16.7096 191.534 15.6949C192.44 14.6847 193.613 14.1797 195.04 14.1797C196.12 14.1797 197.049 14.43 197.827 14.9306Z" fill="white"/>
<path d="M222.762 10.3633V32.8906H215.257V28.7919C214.622 30.334 213.66 31.5095 212.365 32.314C211.069 33.1142 209.467 33.5164 207.568 33.5164C205.87 33.5164 204.391 33.0962 203.126 32.2515C201.861 31.4067 200.886 30.2491 200.199 28.7785C199.516 27.3079 199.17 25.6453 199.17 23.7859C199.148 21.8684 199.512 20.1475 200.26 18.6233C201.004 17.0991 202.058 15.9102 203.415 15.0565C204.772 14.2028 206.321 13.7737 208.058 13.7737C211.634 13.7737 214.032 15.3604 215.257 18.5294V10.3633H222.762ZM214.137 26.5258C214.903 25.7659 215.283 24.7782 215.283 23.5713C215.283 22.4047 214.911 21.4526 214.168 20.7241C213.423 19.9956 212.403 19.629 211.121 19.629C209.857 19.629 208.846 20 208.089 20.7419C207.331 21.484 206.955 22.4449 206.955 23.6339C206.955 24.8228 207.331 25.7928 208.089 26.5436C208.846 27.2945 209.844 27.67 211.091 27.67C212.355 27.6656 213.371 27.2856 214.137 26.5258Z" fill="white"/>
<path d="M106.464 16.5334C108.531 16.5334 110.206 14.9965 110.206 13.1007C110.206 11.2048 108.531 9.66797 106.464 9.66797C104.398 9.66797 102.723 11.2048 102.723 13.1007C102.723 14.9965 104.398 16.5334 106.464 16.5334Z" fill="white"/>
<path d="M102.72 18.8984C105.012 19.9086 107.857 19.9533 110.203 18.8984V32.987H102.72V18.8984Z" fill="white"/>
</svg>
