<svg width="188" height="63" viewBox="0 0 188 63" fill="none" xmlns="http://www.w3.org/2000/svg">
<path d="M80.4533 33.5543C80.4533 42.4579 73.488 49.0188 64.94 49.0188C56.3921 49.0188 49.4268 42.4579 49.4268 33.5543C49.4268 24.588 56.3921 18.0898 64.94 18.0898C73.488 18.0898 80.4533 24.588 80.4533 33.5543ZM73.6624 33.5543C73.6624 27.9905 69.6254 24.1836 64.94 24.1836C60.2547 24.1836 56.2177 27.9905 56.2177 33.5543C56.2177 39.0624 60.2547 42.9251 64.94 42.9251C69.6254 42.9251 73.6624 39.0554 73.6624 33.5543Z" fill="#EA4335"/>
<path d="M113.92 33.5543C113.92 42.4579 106.955 49.0188 98.4068 49.0188C89.8588 49.0188 82.8936 42.4579 82.8936 33.5543C82.8936 24.595 89.8588 18.0898 98.4068 18.0898C106.955 18.0898 113.92 24.588 113.92 33.5543ZM107.129 33.5543C107.129 27.9905 103.092 24.1836 98.4068 24.1836C93.7215 24.1836 89.6845 27.9905 89.6845 33.5543C89.6845 39.0624 93.7215 42.9251 98.4068 42.9251C103.092 42.9251 107.129 39.0554 107.129 33.5543Z" fill="#FBBC05"/>
<path d="M145.992 19.0241V46.7877C145.992 58.2083 139.257 62.8727 131.294 62.8727C123.799 62.8727 119.288 57.8596 117.587 53.76L123.499 51.2987C124.552 53.8157 127.132 56.7859 131.287 56.7859C136.384 56.7859 139.542 53.6414 139.542 47.722V45.4978H139.305C137.785 47.3734 134.857 49.0118 131.162 49.0118C123.43 49.0118 116.346 42.2766 116.346 33.6101C116.346 24.8808 123.43 18.0898 131.162 18.0898C134.85 18.0898 137.778 19.7283 139.305 21.5481H139.542V19.0311H145.992V19.0241ZM140.024 33.6101C140.024 28.1648 136.391 24.1836 131.768 24.1836C127.083 24.1836 123.158 28.1648 123.158 33.6101C123.158 38.9997 127.083 42.9251 131.768 42.9251C136.391 42.9251 140.024 38.9997 140.024 33.6101Z" fill="#4285F4"/>
<path d="M156.625 2.75V48.0697H150.001V2.75H156.625Z" fill="#34A853"/>
<path d="M182.436 38.6471L187.707 42.1612C186.006 44.6782 181.906 49.0149 174.823 49.0149C166.037 49.0149 159.477 42.2239 159.477 33.5504C159.477 24.354 166.093 18.0859 174.063 18.0859C182.088 18.0859 186.013 24.4725 187.296 27.9238L188 29.6808L167.327 38.2428C168.91 41.3454 171.371 42.9281 174.823 42.9281C178.281 42.9281 180.679 41.2269 182.436 38.6471ZM166.212 33.0833L180.031 27.3451C179.271 25.4138 176.984 24.0681 174.293 24.0681C170.841 24.0681 166.037 27.115 166.212 33.0833Z" fill="#EA4335"/>
<path d="M24.3541 29.5327V22.9718H46.4632C46.6793 24.1153 46.7909 25.4679 46.7909 26.9321C46.7909 31.8545 45.4452 37.9413 41.1085 42.278C36.8903 46.6706 31.5007 49.0132 24.3611 49.0132C11.1277 49.0132 0 38.2341 0 25.0008C0 11.7674 11.1277 0.988281 24.3611 0.988281C31.682 0.988281 36.8972 3.86085 40.8156 7.60496L36.1861 12.2345C33.3762 9.59903 29.5694 7.54918 24.3541 7.54918C14.6906 7.54918 7.13263 15.3372 7.13263 25.0008C7.13263 34.6643 14.6906 42.4523 24.3541 42.4523C30.6222 42.4523 34.192 39.9354 36.4789 37.6485C38.3335 35.7938 39.5537 33.1444 40.0347 29.5258L24.3541 29.5327Z" fill="#4285F4"/>
</svg>
