<svg width="153" height="45" viewBox="0 0 153 45" fill="none" xmlns="http://www.w3.org/2000/svg">
<path d="M21.3487 44.2786C27.9103 44.2786 32.2654 42.1882 36.0978 38.8203C36.7366 38.2396 37.2592 37.3686 37.2592 36.2653C37.2592 34.4653 35.6914 32.9555 33.8913 32.9555C33.0203 32.9555 32.2654 33.3039 31.7428 33.7684C28.7813 36.2653 25.878 37.659 21.581 37.659C13.8 37.659 8.16742 31.2135 8.16742 23.2583V23.1421C8.16742 15.1869 13.858 8.7995 21.581 8.7995C25.4715 8.7995 28.491 10.1931 31.2782 12.4577C31.7428 12.8061 32.4396 13.1545 33.4267 13.1545C35.401 13.1545 36.9688 11.6448 36.9688 9.67051C36.9688 8.39303 36.3301 7.40588 35.5752 6.82521C32.0331 4.09604 27.9103 2.23789 21.639 2.23789C9.32877 2.23789 0.676758 11.7029 0.676758 23.2583V23.3744C0.676758 35.0459 9.50298 44.2786 21.3487 44.2786ZM46.6686 8.50916C48.9332 8.50916 50.6752 7.11555 50.6752 5.02512V4.67672C50.6752 2.5863 48.9332 1.25075 46.6686 1.25075C44.404 1.25075 42.6619 2.5863 42.6619 4.67672V5.02512C42.6619 7.11555 44.404 8.50916 46.6686 8.50916ZM46.6686 43.8722C48.6429 43.8722 50.2107 42.3624 50.2107 40.3881V16.116C50.2107 14.1417 48.6429 12.5739 46.6686 12.5739C44.6943 12.5739 43.1846 14.1417 43.1846 16.116V40.3881C43.1846 42.3624 44.7524 43.8722 46.6686 43.8722ZM61.1299 43.8722C63.1041 43.8722 64.672 42.3043 64.672 40.3881V31.3296C64.672 24.0712 68.0979 20.2388 73.0917 19.3678C74.6595 19.0774 75.879 17.858 75.879 15.9998C75.879 13.9675 74.6015 12.5158 72.3949 12.5158C69.3174 12.5158 66.2978 15.4192 64.672 19.2516V16.116C64.672 14.1417 63.1041 12.5739 61.1299 12.5739C59.1556 12.5739 57.6458 14.1417 57.6458 16.116V40.3881C57.6458 42.3624 59.2136 43.8722 61.1299 43.8722ZM93.0113 44.2786C98.1213 44.2786 101.431 42.5366 104.16 39.9236C104.799 39.401 105.147 38.6461 105.147 37.717C105.147 36.0331 103.812 34.6395 102.128 34.6395C101.315 34.6395 100.618 35.0459 100.212 35.3943C98.2955 37.0202 96.147 38.1235 93.3597 38.1235C87.9595 38.1235 84.1851 33.7684 84.1851 28.3101V28.194C84.1851 22.8518 87.9595 18.4387 93.0694 18.4387C95.8566 18.4387 97.8309 19.542 99.631 21.0517C100.096 21.4001 100.85 21.7485 101.721 21.7485C103.522 21.7485 104.973 20.3549 104.973 18.5548C104.973 17.3935 104.334 16.5225 103.87 16.116C101.257 13.8514 97.947 12.2835 93.1275 12.2835C83.8948 12.2835 77.1589 19.6 77.1589 28.3101V28.4263C77.1589 37.1364 83.8948 44.2786 93.0113 44.2786ZM114.15 43.8722C116.125 43.8722 117.692 42.3624 117.692 40.3881V4.38638C117.692 2.47016 116.125 0.902344 114.15 0.902344C112.176 0.902344 110.666 2.47016 110.666 4.38638V40.3881C110.666 42.3624 112.234 43.8722 114.15 43.8722ZM139.18 44.2786C143.941 44.2786 147.425 42.7108 150.213 40.2139C150.735 39.6913 151.142 38.9364 151.142 38.0654C151.142 36.4395 149.922 35.2201 148.355 35.2201C147.542 35.2201 147.077 35.4524 146.554 35.8589C144.58 37.4848 142.257 38.53 139.296 38.53C134.767 38.53 131.225 35.7427 130.47 30.7489H149.69C151.49 30.7489 153 29.3553 153 27.381C153 20.2968 148.18 12.2835 138.425 12.2835C129.657 12.2835 123.444 19.4839 123.444 28.2521V28.3682C123.444 37.8332 130.296 44.2786 139.18 44.2786ZM146.148 26.1036H130.412C131.05 21.342 134.07 18.0322 138.367 18.0322C143.012 18.0322 145.683 21.5743 146.148 26.1036Z" fill="white"/>
</svg>
