<svg width="184" height="47" viewBox="0 0 184 47" fill="none" xmlns="http://www.w3.org/2000/svg">
<path d="M58.7373 36.6107L61.0179 31.2918C63.5142 33.1373 66.7719 34.1144 70.0278 34.1144C72.4154 34.1144 73.9364 33.1917 73.9364 31.7812C73.882 27.8727 59.5531 30.9129 59.4443 21.089C59.3899 16.0963 63.8405 12.2422 70.1384 12.2422C73.8838 12.2422 77.6292 13.1649 80.2887 15.2824L78.1585 20.7155C75.7112 19.1456 72.6891 18.0506 69.8139 18.0506C67.8596 18.0506 66.5562 18.9734 66.5562 20.168C66.6106 24.0222 81.0482 21.9048 81.2114 31.2954C81.2114 36.3968 76.8678 39.979 70.6805 39.979C66.1193 39.9754 61.9406 38.8895 58.7373 36.6107Z" fill="white"/>
<path d="M146.774 29.3605C145.637 31.3692 143.482 32.7252 141.009 32.7252C137.352 32.7252 134.387 29.7612 134.387 26.1028C134.387 22.4444 137.351 19.4804 141.009 19.4804C143.482 19.4804 145.637 20.8364 146.774 22.8451L153.112 19.3336C150.739 15.0987 146.208 12.2344 141.009 12.2344C133.35 12.2344 127.141 18.4434 127.141 26.1028C127.141 33.7622 133.35 39.9712 141.009 39.9712C146.21 39.9712 150.739 37.1069 153.112 32.872L146.774 29.3605Z" fill="white"/>
<path d="M92.3301 0.691406H84.4043V39.4287H92.3301V0.691406Z" fill="white"/>
<path d="M156.195 0.691406V39.4305H164.121V27.8228L173.512 39.4305H183.64L171.699 25.6419L182.772 12.7778H173.077L164.121 23.4719V0.691406H156.195Z" fill="white"/>
<path d="M115.827 29.4131C114.686 31.313 112.299 32.7234 109.639 32.7234C105.983 32.7234 103.017 29.7593 103.017 26.101C103.017 22.4426 105.983 19.4786 109.639 19.4786C112.299 19.4786 114.686 20.9434 115.827 22.8977V29.4131ZM115.827 12.7764V15.9254C114.523 13.7536 111.322 12.2344 107.955 12.2344C101.007 12.2344 95.5244 18.3673 95.5244 26.0756C95.5244 33.7839 101.007 39.9712 107.955 39.9712C111.32 39.9712 114.523 38.452 115.825 36.2802V39.4274H123.749V12.7764H115.827Z" fill="white"/>
<path d="M9.78947 29.3674C9.78947 32.0704 7.59772 34.2621 4.89474 34.2621C2.19175 34.2621 0 32.0704 0 29.3674C0 26.6644 2.19175 24.4727 4.89474 24.4727H9.78947V29.3674Z" fill="#E01E5A"/>
<path d="M12.2373 29.3674C12.2373 26.6644 14.4291 24.4727 17.132 24.4727C19.835 24.4727 22.0268 26.6644 22.0268 29.3674V41.6042C22.0268 44.3072 19.835 46.499 17.132 46.499C14.4291 46.499 12.2373 44.3072 12.2373 41.6042V29.3674Z" fill="#E01E5A"/>
<path d="M17.132 9.78947C14.4291 9.78947 12.2373 7.59772 12.2373 4.89474C12.2373 2.19175 14.4291 0 17.132 0C19.835 0 22.0268 2.19175 22.0268 4.89474V9.78947H17.132Z" fill="#36C5F0"/>
<path d="M17.1316 12.2383C19.8346 12.2383 22.0263 14.43 22.0263 17.133C22.0263 19.836 19.8346 22.0278 17.1316 22.0278H4.89474C2.19175 22.0278 0 19.836 0 17.133C0 14.43 2.19175 12.2383 4.89474 12.2383H17.1316Z" fill="#36C5F0"/>
<path d="M36.7109 17.133C36.7109 14.43 38.9027 12.2383 41.6057 12.2383C44.3087 12.2383 46.5004 14.43 46.5004 17.133C46.5004 19.836 44.3087 22.0278 41.6057 22.0278H36.7109V17.133Z" fill="#2EB67D"/>
<path d="M34.2631 17.1316C34.2631 19.8346 32.0714 22.0263 29.3684 22.0263C26.6654 22.0263 24.4736 19.8346 24.4736 17.1316V4.89474C24.4736 2.19175 26.6654 0 29.3684 0C32.0714 0 34.2631 2.19175 34.2631 4.89474V17.1316Z" fill="#2EB67D"/>
<path d="M29.3684 36.7109C32.0714 36.7109 34.2631 38.9027 34.2631 41.6057C34.2631 44.3087 32.0714 46.5004 29.3684 46.5004C26.6654 46.5004 24.4736 44.3087 24.4736 41.6057V36.7109H29.3684Z" fill="#ECB22E"/>
<path d="M29.3684 34.2621C26.6654 34.2621 24.4736 32.0704 24.4736 29.3674C24.4736 26.6644 26.6654 24.4727 29.3684 24.4727H41.6052C44.3082 24.4727 46.5 26.6644 46.5 29.3674C46.5 32.0704 44.3082 34.2621 41.6052 34.2621H29.3684Z" fill="#ECB22E"/>
</svg>
