<svg width="191" height="22" viewBox="0 0 191 22" fill="none" xmlns="http://www.w3.org/2000/svg">
<path d="M15.3715 0.265625H1.61773C1.2353 0.265625 0.868535 0.417544 0.598118 0.687962C0.3277 0.95838 0.175781 1.32514 0.175781 1.70757C0.175781 2.09 0.3277 2.45677 0.598118 2.72718C0.868535 2.9976 1.2353 3.14952 1.61773 3.14952H7.05418V19.5509C7.05418 19.9333 7.2061 20.3001 7.47652 20.5705C7.74693 20.8409 8.1137 20.9929 8.49613 20.9929C8.87856 20.9929 9.24532 20.8409 9.51574 20.5705C9.78616 20.3001 9.93808 19.9333 9.93808 19.5509V3.14952H15.3715C15.7539 3.14952 16.1207 2.9976 16.3911 2.72718C16.6615 2.45677 16.8134 2.09 16.8134 1.70757C16.8134 1.32514 16.6615 0.95838 16.3911 0.687962C16.1207 0.417544 15.7539 0.265625 15.3715 0.265625Z" fill="white"/>
<path d="M41.655 0.265628C41.4656 0.265224 41.2779 0.302245 41.1027 0.374566C40.9276 0.446888 40.7685 0.553085 40.6345 0.687063C40.5005 0.821041 40.3943 0.980161 40.322 1.15529C40.2497 1.33042 40.2127 1.5181 40.2131 1.70758V9.1873H28.1651V1.70758C28.1651 1.32515 28.0132 0.958383 27.7428 0.687965C27.4724 0.417547 27.1056 0.265628 26.7232 0.265628C26.3408 0.265628 25.974 0.417547 25.7036 0.687965C25.4332 0.958383 25.2812 1.32515 25.2813 1.70758V19.5509C25.2812 19.9333 25.4332 20.3001 25.7036 20.5705C25.974 20.8409 26.3408 20.9929 26.7232 20.9929C27.1056 20.9929 27.4724 20.8409 27.7428 20.5705C28.0132 20.3001 28.1651 19.9333 28.1651 19.5509V12.0712H40.2131V19.5509C40.2131 19.7403 40.2504 19.9278 40.3228 20.1027C40.3953 20.2777 40.5015 20.4366 40.6354 20.5705C40.7693 20.7044 40.9283 20.8106 41.1032 20.8831C41.2782 20.9556 41.4657 20.9929 41.655 20.9929C41.8444 20.9929 42.0319 20.9556 42.2068 20.8831C42.3818 20.8106 42.5407 20.7044 42.6746 20.5705C42.8085 20.4366 42.9147 20.2777 42.9872 20.1027C43.0597 19.9278 43.097 19.7403 43.097 19.5509V1.70758C43.097 1.32515 42.9451 0.958383 42.6746 0.687965C42.4042 0.417547 42.0375 0.265628 41.655 0.265628Z" fill="white"/>
<path d="M55.5064 0.265628C55.3169 0.265224 55.1292 0.302245 54.9541 0.374566C54.779 0.446888 54.6199 0.553085 54.4859 0.687063C54.3519 0.821041 54.2457 0.980161 54.1734 1.15529C54.1011 1.33042 54.0641 1.5181 54.0645 1.70758V19.5509C54.0645 19.9333 54.2164 20.3001 54.4868 20.5705C54.7572 20.8409 55.124 20.9929 55.5064 20.9929C55.8888 20.9929 56.2556 20.8409 56.526 20.5705C56.7964 20.3001 56.9484 19.9333 56.9484 19.5509V1.70758C56.9484 1.32515 56.7964 0.958383 56.526 0.687965C56.2556 0.417547 55.8888 0.265628 55.5064 0.265628Z" fill="white"/>
<path d="M98.2193 0.265628C97.8369 0.265628 97.4701 0.417547 97.1997 0.687965C96.9293 0.958383 96.7773 1.32515 96.7773 1.70758V19.5509C96.7773 19.9333 96.9293 20.3001 97.1997 20.5705C97.4701 20.8409 97.8369 20.9929 98.2193 20.9929C98.6017 20.9929 98.9685 20.8409 99.2389 20.5705C99.5093 20.3001 99.6612 19.9333 99.6612 19.5509V1.70758C99.6616 1.5181 99.6246 1.33042 99.5523 1.15529C99.48 0.980161 99.3738 0.821041 99.2398 0.687063C99.1058 0.553085 98.9467 0.446888 98.7716 0.374566C98.5965 0.302245 98.4088 0.265224 98.2193 0.265628Z" fill="white"/>
<path d="M124.782 0.265628C124.399 0.265628 124.033 0.417547 123.762 0.687965C123.492 0.958383 123.34 1.32515 123.34 1.70758V19.5509C123.34 19.9333 123.492 20.3001 123.762 20.5705C124.033 20.8409 124.399 20.9929 124.782 20.9929C125.164 20.9929 125.531 20.8409 125.801 20.5705C126.072 20.3001 126.224 19.9333 126.224 19.5509V1.70758C126.224 1.5181 126.187 1.33042 126.115 1.15529C126.042 0.980161 125.936 0.821041 125.802 0.687063C125.668 0.553085 125.509 0.446888 125.334 0.374566C125.159 0.302245 124.971 0.265224 124.782 0.265628Z" fill="white"/>
<path d="M160.891 0.265628C160.702 0.265628 160.514 0.302925 160.339 0.37539C160.164 0.447854 160.005 0.554068 159.872 0.687965C159.738 0.821862 159.631 0.980821 159.559 1.15577C159.487 1.33071 159.449 1.51822 159.449 1.70758V19.5509C159.449 19.9333 159.601 20.3001 159.872 20.5705C160.142 20.8409 160.509 20.9929 160.891 20.9929C161.274 20.9929 161.64 20.8409 161.911 20.5705C162.181 20.3001 162.333 19.9333 162.333 19.5509V1.70758C162.334 1.5181 162.296 1.33042 162.224 1.15529C162.152 0.980161 162.046 0.821041 161.912 0.687063C161.778 0.553085 161.619 0.446888 161.443 0.374566C161.268 0.302245 161.081 0.265224 160.891 0.265628Z" fill="white"/>
<path d="M149.596 0.265628H138.603C138.414 0.265224 138.226 0.302245 138.051 0.374566C137.876 0.446888 137.717 0.553085 137.583 0.687063C137.449 0.821041 137.342 0.980161 137.27 1.15529C137.198 1.33042 137.161 1.5181 137.161 1.70758V19.5509C137.161 19.7403 137.198 19.9278 137.271 20.1027C137.343 20.2777 137.45 20.4366 137.583 20.5705C137.717 20.7044 137.876 20.8106 138.051 20.8831C138.226 20.9556 138.414 20.9929 138.603 20.9929C138.792 20.9929 138.98 20.9556 139.155 20.8831C139.33 20.8106 139.489 20.7044 139.623 20.5705C139.757 20.4366 139.863 20.2777 139.935 20.1027C140.008 19.9278 140.045 19.7403 140.045 19.5509V12.4946H148.522C148.904 12.4946 149.271 12.3427 149.541 12.0722C149.812 11.8018 149.964 11.4351 149.964 11.0526C149.964 10.6702 149.812 10.3034 149.541 10.033C149.271 9.7626 148.904 9.61068 148.522 9.61068H140.045V3.14952H149.596C149.978 3.14952 150.345 2.9976 150.615 2.72719C150.886 2.45677 151.038 2.09 151.038 1.70758C151.038 1.32515 150.886 0.958383 150.615 0.687965C150.345 0.417547 149.978 0.265628 149.596 0.265628Z" fill="white"/>
<path d="M84.3513 0.265628C84.1618 0.265224 83.9742 0.302245 83.799 0.374566C83.6239 0.446888 83.4648 0.553085 83.3308 0.687063C83.1968 0.821041 83.0906 0.980161 83.0183 1.15529C82.946 1.33042 82.909 1.5181 82.9094 1.70758V15.581L70.524 0.781048C70.3341 0.554829 70.0793 0.392366 69.7941 0.315626C69.509 0.238885 69.2071 0.251569 68.9293 0.351961C68.6516 0.452353 68.4113 0.635611 68.2411 0.87696C68.0709 1.11831 67.9789 1.40611 67.9775 1.70144V19.5509C67.9775 19.9333 68.1295 20.3001 68.3999 20.5705C68.6703 20.8409 69.0371 20.9929 69.4195 20.9929C69.8019 20.9929 70.1687 20.8409 70.4391 20.5705C70.7095 20.3001 70.8614 19.9333 70.8614 19.5509V5.67753L83.2438 20.4774C83.4334 20.7048 83.6883 20.8684 83.9741 20.9458C84.2598 21.0233 84.5625 21.0109 84.841 20.9104C85.1194 20.8098 85.3602 20.626 85.5306 20.3839C85.7009 20.1418 85.7927 19.8531 85.7933 19.5571V1.70758C85.7933 1.32515 85.6413 0.958383 85.3709 0.687965C85.1005 0.417547 84.7337 0.265628 84.3513 0.265628Z" fill="white"/>
<path d="M187.795 16.3416C186.692 17.4445 185.287 18.1957 183.758 18.5001C182.228 18.8045 180.643 18.6485 179.202 18.0518C177.761 17.4551 176.529 16.4445 175.663 15.1478C174.796 13.8511 174.334 12.3266 174.334 10.7671C174.334 9.20752 174.796 7.683 175.663 6.38632C176.529 5.08964 177.761 4.07904 179.202 3.48233C180.643 2.88563 182.228 2.72962 183.758 3.03404C185.287 3.33846 186.692 4.08963 187.795 5.19255C188.069 5.44284 188.429 5.57784 188.8 5.56944C189.171 5.56104 189.524 5.40991 189.787 5.14747C190.049 4.88504 190.2 4.53152 190.209 4.16048C190.217 3.78944 190.082 3.42945 189.832 3.15542C188.326 1.64902 186.407 0.623024 184.318 0.207203C182.229 -0.208619 180.064 0.00441013 178.096 0.819346C176.128 1.63428 174.446 3.01452 173.262 4.78549C172.079 6.55645 171.447 8.6386 171.447 10.7686C171.447 12.8986 172.079 14.9807 173.262 16.7517C174.446 18.5227 176.128 19.9029 178.096 20.7178C180.064 21.5328 182.229 21.7458 184.318 21.33C186.407 20.9142 188.326 19.8882 189.832 18.3818C190.092 18.1095 190.235 17.7463 190.231 17.3697C190.227 16.9931 190.076 16.6331 189.81 16.3665C189.544 16.1 189.184 15.9482 188.807 15.9436C188.431 15.9389 188.067 16.0817 187.795 16.3416Z" fill="white"/>
<path d="M112.304 0.566852C112.154 0.450893 111.983 0.365638 111.8 0.315975C111.617 0.266312 111.427 0.253219 111.239 0.277447C111.051 0.301675 110.87 0.362746 110.706 0.457159C110.541 0.551573 110.398 0.67747 110.282 0.82763L103.404 9.7493C103.21 10.0018 103.104 10.3113 103.104 10.6298C103.104 10.9483 103.21 11.2578 103.404 11.5103L110.282 20.432C110.518 20.7279 110.86 20.9195 111.236 20.9653C111.611 21.0111 111.99 20.9075 112.289 20.6769C112.589 20.4463 112.786 20.1071 112.839 19.7325C112.891 19.3578 112.793 18.9777 112.568 18.674L106.367 10.6298L112.568 2.58865C112.801 2.28553 112.904 1.90226 112.855 1.52312C112.805 1.14397 112.607 0.800003 112.304 0.566852Z" fill="white"/>
</svg>
