<svg width="222" height="45" viewBox="0 0 222 45" fill="none" xmlns="http://www.w3.org/2000/svg">
<path d="M23.0296 34.9145C31.3175 34.9145 37.7233 28.6618 37.7233 20.9489C37.7233 13.7227 31.7051 9.31079 27.7191 9.31079C22.1686 9.31079 17.7193 13.2004 17.0854 18.9748C16.968 20.0442 16.1195 20.941 15.0428 20.9333C13.2531 20.9205 10.6506 20.9052 9.00336 20.9109C8.29411 20.9134 7.70799 20.3387 7.74294 19.6308C7.99136 14.6227 9.66837 9.94005 12.866 6.34305C16.419 2.34613 21.5934 0 27.7191 0C38.0113 0 47.7275 9.33891 47.7275 20.9489C47.7275 33.804 37.0616 44.2253 23.2485 44.2253C13.3978 44.2253 3.47629 37.7965 0.0122444 28.8087C-0.000215679 28.7754 -0.00323876 28.7393 0.00350857 28.7044C0.0499178 28.4385 0.141371 28.1955 0.23146 27.9564C0.362498 27.6086 0.490806 27.2684 0.472242 26.8767L0.412183 25.6247C0.398385 25.3217 0.475245 25.0214 0.632944 24.7623C0.790642 24.5032 1.02202 24.2969 1.29751 24.1699L1.79818 23.9371C2.07868 23.8074 2.32399 23.6124 2.51353 23.3683C2.70306 23.1243 2.83128 22.8383 2.88743 22.5344C3.05533 21.6163 3.8623 20.9489 4.80441 20.9489C6.27586 20.9489 7.55511 21.9259 8.03559 23.3149C10.3487 30.0006 14.0259 34.9145 23.0296 34.9145Z" fill="white"/>
<path d="M206.242 15.4475C204.407 15.4475 203.842 14.3545 203.842 13.1203C203.842 11.8156 204.301 10.793 206.242 10.793C208.183 10.793 208.642 11.8156 208.642 13.1203C208.642 14.3542 208.148 15.4475 206.242 15.4475ZM172.739 30.5841V21.5222L170.158 21.5094V20.4546C170.158 19.3055 171.093 18.3757 172.244 18.3814L172.739 18.3842V14.5404L176.868 13.3769V18.3836H180.61V19.4488C180.61 19.7212 180.556 19.9909 180.452 20.2424C180.347 20.494 180.194 20.7226 180.002 20.9151C179.809 21.1076 179.58 21.2603 179.329 21.3644C179.077 21.4685 178.807 21.5221 178.535 21.522H176.868V30.055C176.868 31.3687 177.614 31.83 178.573 31.9886C179.705 32.1754 180.645 32.9933 180.645 34.1379V35.6967C176.735 35.6967 172.739 35.5245 172.739 30.5841H172.739ZM91.2727 17.9932C87.1431 17.8873 82.0605 20.4966 82.0605 27.0201C82.0605 33.4374 87.1431 35.9763 91.2727 35.8706C95.5083 35.9763 100.555 33.4374 100.555 27.0201C100.555 20.4966 95.5083 17.8873 91.2727 17.9932ZM91.3033 32.6676C88.3031 32.6676 86.1745 30.4839 86.1745 26.8874C86.1745 23.4668 88.3045 21.2138 91.3047 21.2138C94.3046 21.2138 96.4108 23.4624 96.4108 26.8825C96.4108 30.4792 94.3033 32.6676 91.303 32.6676H91.3033ZM111.403 18.032C115.003 18.032 118.744 19.0191 118.744 26.0714V35.5215H116.443C115.297 35.5215 114.368 34.5933 114.368 33.4483V25.719C114.368 22.3694 113.132 21.0999 110.979 21.0999C109.779 21.0999 108.226 22.0166 107.485 22.757V33.4486C107.485 33.721 107.431 33.9906 107.327 34.2422C107.222 34.4938 107.069 34.7224 106.877 34.9149C106.684 35.1074 106.455 35.2601 106.204 35.3642C105.952 35.4683 105.682 35.5218 105.41 35.5217H103.32V18.4551H105.649C106.05 18.455 106.44 18.5909 106.754 18.8407C107.068 19.0904 107.288 19.4392 107.379 19.8302C108.438 18.6667 109.815 18.032 111.403 18.032ZM123.464 18.4248C123.892 18.4247 124.309 18.5568 124.659 18.8031C125.009 19.0494 125.274 19.3979 125.418 19.8007L129.198 30.3782L132.976 19.801C133.12 19.3982 133.386 19.0497 133.735 18.8034C134.085 18.5571 134.503 18.4249 134.93 18.4251H137.915L131.76 34.1723C131.608 34.5611 131.342 34.8949 130.998 35.1301C130.653 35.3654 130.245 35.4912 129.827 35.4912H127.186L120.479 18.4248H123.464ZM154.233 34.6621C152.927 35.1909 150.278 35.8955 147.525 35.8955C142.69 35.8955 138.986 33.1101 138.986 26.8336C138.986 21.1919 142.576 18.1753 146.953 18.1753C152.355 18.1753 154.659 21.7977 154.419 26.7288C154.369 27.7476 153.481 28.4907 152.46 28.4907H143.149C143.36 31.2412 145.372 32.6867 148.019 32.6867C149.059 32.6867 150.152 32.634 151.461 32.3897C152.85 32.1303 154.233 33.1177 154.233 34.5291V34.6621ZM150.681 25.5994C150.964 22.9006 149.141 21.4196 146.953 21.4196C144.765 21.4196 143.289 23.0606 143.149 25.5992H150.681V25.5994ZM159.919 18.4603C160.302 18.4602 160.674 18.5888 160.976 18.8254C161.277 19.062 161.49 19.393 161.581 19.7652C162.992 18.7071 164.757 18.0372 165.992 18.0372C166.099 18.0372 166.769 18.0372 167.828 18.1783V20.0082C167.828 20.9918 166.977 21.7396 165.992 21.7396C164.863 21.7396 163.204 22.1627 161.898 22.9033V35.5266H157.698V18.4601H159.919V18.4603ZM208.36 33.4027V18.4095H206.27C205.124 18.4095 204.195 19.3377 204.195 20.4827V35.4756H206.284C207.431 35.4756 208.36 34.5474 208.36 33.4027ZM214.039 30.6201V21.558H211.251V20.4928C211.251 19.3478 212.18 18.4196 213.326 18.4196H214.039V14.5764L218.169 13.4126V18.4196H221.91V19.4849C221.91 20.6298 220.981 21.558 219.835 21.558H218.169V30.0913C218.169 31.4047 218.914 31.8661 219.874 32.0247C221.005 32.2117 221.945 33.0293 221.945 34.174V35.7328C218.035 35.7328 214.039 35.5608 214.039 30.6201ZM61.4229 23.4946C61.4491 15.515 67.4724 11.0561 73.2526 11.0561C76.463 11.0561 79.407 11.7474 81.8279 13.4749L80.8484 14.8172C80.1932 15.7154 78.9511 16.0722 77.9164 15.6635C76.4562 15.0866 75.0808 14.9649 74.0563 14.9649C69.3269 14.9649 65.7599 18.0006 65.7345 23.4944C65.7599 28.9879 69.3269 32.0675 74.0563 32.0675C75.0808 32.0675 76.4562 31.9458 77.9164 31.3689C78.9511 30.9603 80.1932 31.2739 80.8484 32.1718L81.8279 33.5144C79.407 35.2419 76.4633 35.9331 73.2526 35.9331C67.4724 35.9331 61.4491 31.474 61.4229 23.4946ZM185.766 11.1809C186.912 11.1809 187.841 12.1091 187.841 13.254V22.7584L196.335 12.0957C196.528 11.8341 196.78 11.6215 197.07 11.475C197.36 11.3286 197.681 11.2523 198.006 11.2524H201.779L192.175 23.3666L201.779 35.4759H198.006C197.681 35.4759 197.36 35.3997 197.07 35.2532C196.78 35.1067 196.528 34.8941 196.335 34.6326L187.841 23.9729V33.4027C187.841 34.5477 186.912 35.4759 185.766 35.4759H183.57V11.1809H185.766Z" fill="white"/>
</svg>
