<svg width="191" height="54" viewBox="0 0 191 54" fill="none" xmlns="http://www.w3.org/2000/svg">
<path d="M186.576 32.8965C186.457 33.6244 186.253 34.2599 185.964 34.8055C185.676 35.3505 185.286 35.8054 184.827 36.1334C184.36 36.4734 183.776 36.6441 183.079 36.6441C182.401 36.6441 181.823 36.4734 181.345 36.1334C180.866 35.796 180.484 35.3516 180.194 34.8055C179.906 34.2599 179.696 33.6244 179.566 32.8965C179.437 32.1681 179.372 31.4249 179.372 30.6797C179.372 29.901 179.433 29.1495 179.552 28.4236C179.671 27.6958 179.876 27.0537 180.165 26.493C180.453 25.9367 180.833 25.4823 181.301 25.1314C181.768 24.7798 182.351 24.6018 183.049 24.6018C183.726 24.6018 184.299 24.7798 184.767 25.1314C185.236 25.4823 185.619 25.9416 185.918 26.5123C186.218 27.0827 186.432 27.7322 186.561 28.4585C186.692 29.1882 186.757 29.933 186.756 30.6797C186.756 31.4292 186.695 32.17 186.576 32.8965ZM190.581 26.9852C190.302 25.7618 189.874 24.6879 189.295 23.7661C188.717 22.8451 187.992 22.1046 187.115 21.5478C186.237 20.9889 185.19 20.7115 183.975 20.7115C183.019 20.7115 182.142 20.9407 181.345 21.4017C180.548 21.863 179.89 22.6027 179.372 23.621H179.314V21.2194H175.278V46.6109H179.521V37.699H179.582C180.1 38.6214 180.763 39.3175 181.57 39.7889C182.376 40.2618 183.259 40.4996 184.216 40.4996C185.35 40.4996 186.341 40.2309 187.189 39.6987C188.035 39.1661 188.744 38.4495 189.311 37.5519C189.88 36.6542 190.302 35.6247 190.581 34.4609C190.862 33.2962 191 32.0838 191 30.8232C191 29.4895 190.862 28.211 190.581 26.9852ZM169.66 32.8963C169.539 33.6242 169.334 34.2597 169.046 34.8053C168.757 35.3514 168.378 35.7958 167.909 36.1332C167.442 36.4732 166.858 36.6439 166.161 36.6439C165.483 36.6439 164.907 36.4732 164.429 36.1332C163.95 35.7958 163.567 35.3514 163.277 34.8053C162.988 34.2597 162.78 33.6242 162.65 32.8963C162.52 32.1679 162.455 31.4247 162.456 30.6795C162.456 29.9008 162.514 29.1493 162.634 28.4234C162.755 27.6956 162.958 27.0534 163.248 26.4928C163.535 25.9365 163.915 25.4821 164.384 25.1312C164.852 24.7796 165.433 24.6016 166.132 24.6016C166.808 24.6016 167.383 24.7796 167.85 25.1312C168.316 25.478 168.71 25.9505 169.001 26.5121C169.299 27.0825 169.513 27.732 169.643 28.4583C169.773 29.1881 169.838 29.9328 169.837 30.6795C169.838 31.4237 169.778 32.1662 169.66 32.8963ZM172.378 23.7659C171.801 22.8449 171.073 22.1044 170.196 21.5476C169.319 20.9887 168.274 20.7113 167.059 20.7113C166.101 20.7113 165.225 20.9405 164.429 21.4015C163.63 21.8628 162.974 22.6025 162.456 23.6208H162.395V21.2192H158.359V46.6109H162.606V37.699H162.664C163.181 38.6214 163.846 39.3175 164.653 39.7889C165.458 40.2618 166.341 40.4996 167.297 40.4996C168.434 40.4996 169.424 40.2309 170.271 39.6987C171.118 39.1661 171.826 38.4495 172.394 37.5519C172.962 36.6542 173.384 35.6247 173.665 34.4609C173.942 33.2962 174.083 32.0838 174.083 30.8232C174.083 29.4895 173.942 28.2108 173.665 26.985C173.384 25.7616 172.956 24.6877 172.378 23.7659ZM144.462 29.9865L147.242 20.4555H147.301L149.992 29.9865H144.462ZM144.91 14.0536L136.84 40.0257H141.563L143.236 34.2418H151.217L152.83 40.0257H157.703L149.723 14.0538L144.91 14.0536ZM136.481 31.7871C136.206 31.198 135.828 30.6888 135.375 30.2946C134.917 29.8959 134.393 29.5736 133.806 29.3301C133.212 29.0874 132.608 28.8818 131.997 28.714C131.411 28.5467 130.824 28.3888 130.235 28.2401C129.657 28.0937 129.142 27.9303 128.694 27.7495C128.246 27.5672 127.884 27.3323 127.604 27.0388C127.324 26.7486 127.187 26.3733 127.187 25.912C127.187 25.5238 127.264 25.2149 127.425 24.984C127.583 24.7559 127.783 24.5753 128.008 24.4561C128.237 24.3358 128.49 24.2573 128.77 24.2197C129.028 24.1856 129.287 24.168 129.547 24.1669C130.304 24.1669 130.962 24.3423 131.521 24.6936C132.077 25.0452 132.387 25.7185 132.446 26.712H136.481C136.401 25.5488 136.158 24.5853 135.749 23.8192C135.341 23.0565 134.827 22.4438 134.21 21.9837C133.593 21.5228 132.89 21.196 132.102 21.0015C131.315 20.8072 130.503 20.7113 129.668 20.7113C128.829 20.7113 128.012 20.8024 127.217 20.9822C126.418 21.1651 125.701 21.4817 125.064 21.9292C124.426 22.3777 123.913 22.989 123.524 23.7659C123.135 24.5416 122.941 25.5372 122.941 26.7486C122.941 27.5731 123.081 28.2718 123.361 28.841C123.637 29.4116 124.008 29.8825 124.464 30.2589C124.924 30.6348 125.447 30.939 126.035 31.1677C126.629 31.4017 127.232 31.6025 127.842 31.7696C129.358 32.1582 130.539 32.5447 131.385 32.9341C132.232 33.3214 132.656 33.903 132.656 34.6799C132.656 35.1406 132.567 35.5205 132.387 35.8241C132.21 36.1248 131.981 36.3735 131.715 36.552C131.444 36.7347 131.145 36.8688 130.818 36.9518C130.489 37.0373 130.174 37.0802 129.876 37.0802C129.457 37.0802 129.054 37.0188 128.666 36.8981C128.277 36.7766 127.933 36.5884 127.634 36.3336C127.336 36.0795 127.09 35.7527 126.901 35.3514C126.713 34.951 126.617 34.4741 126.617 33.9146H122.582C122.623 35.1758 122.856 36.2252 123.286 37.0615C123.712 37.8982 124.26 38.5704 124.929 39.0807C125.596 39.589 126.359 39.9537 127.217 40.1726C128.081 40.3915 128.962 40.5011 129.845 40.4998C130.713 40.5001 131.579 40.3968 132.431 40.1913C133.278 39.9846 134.03 39.6266 134.688 39.1163C135.347 38.6082 135.878 37.9353 136.288 37.0981C136.695 36.2602 136.899 35.2238 136.899 33.9868C136.899 33.1125 136.76 32.3811 136.481 31.7871ZM118.937 15.582H114.692V21.2194H112.122V24.6745H114.692V35.77C114.692 36.717 114.823 37.4799 115.081 38.0615C115.34 38.6428 115.693 39.0941 116.141 39.4085C116.59 39.7239 117.108 39.9352 117.696 40.0444C118.282 40.1527 118.908 40.2078 119.564 40.2078C119.984 40.2078 120.411 40.1948 120.85 40.1728C121.288 40.1478 121.686 40.1007 122.045 40.0259V36.024C121.838 36.0756 121.628 36.1121 121.417 36.1334C121.188 36.1588 120.959 36.1713 120.73 36.171C120.013 36.171 119.534 36.024 119.294 35.7334C119.057 35.4432 118.937 34.8608 118.937 33.987V24.6745H122.045V21.2194H118.937L118.937 15.582ZM106.772 32.7495C106.772 33.043 106.747 33.4307 106.697 33.915C106.647 34.4013 106.512 34.8785 106.294 35.3516C106.074 35.8245 105.734 36.2321 105.277 36.5701C104.819 36.9107 104.172 37.0802 103.334 37.0802C102.996 37.0802 102.667 37.044 102.348 36.9698C102.028 36.8983 101.75 36.7699 101.511 36.5886C101.272 36.4067 101.082 36.158 100.943 35.8426C100.804 35.5276 100.734 35.1408 100.734 34.6801C100.734 34.1955 100.804 33.7927 100.943 33.4791C101.077 33.1717 101.267 32.9044 101.497 32.6967C101.725 32.4908 101.994 32.3274 102.303 32.2049C102.612 32.084 102.926 31.9869 103.245 31.9143C103.583 31.8432 103.922 31.7806 104.26 31.7324C104.586 31.6867 104.91 31.6262 105.232 31.5511C105.526 31.483 105.815 31.3915 106.099 31.2772C106.368 31.1679 106.592 31.0183 106.772 30.8232V32.7495ZM111.016 35.8426V26.0585C111.016 24.9168 110.807 24.0023 110.388 23.3121C109.97 22.6204 109.432 22.0814 108.775 21.6933C108.116 21.3055 107.388 21.0442 106.592 20.9113C105.809 20.7793 105.021 20.7125 104.231 20.7115C103.375 20.7115 102.522 20.8137 101.676 21.0204C100.827 21.2263 100.067 21.5726 99.3888 22.0566C98.7169 22.5344 98.1444 23.194 97.7158 23.9844C97.276 24.7847 97.0271 25.7912 96.9677 27.0041H101.211C101.291 25.9849 101.571 25.257 102.05 24.8209C102.528 24.3841 103.185 24.1671 104.022 24.1671C104.4 24.1671 104.753 24.1976 105.083 24.2575C105.411 24.3189 105.701 24.4384 105.95 24.6213C106.199 24.803 106.398 25.057 106.547 25.3854C106.697 25.7124 106.772 26.156 106.772 26.7122C106.791 27.2473 106.661 27.6511 106.384 27.9305C106.104 28.211 105.726 28.4236 105.247 28.5672C104.769 28.7142 104.221 28.8235 103.603 28.894C102.985 28.9682 102.358 29.0672 101.721 29.1867C101.081 29.3085 100.448 29.4724 99.8231 29.6778C99.1956 29.8827 98.6358 30.1936 98.1482 30.6041C97.6597 31.0183 97.2615 31.5692 96.9516 32.2608C96.6434 32.9522 96.4893 33.8321 96.4893 34.8978C96.4893 35.8676 96.6236 36.704 96.8926 37.4066C97.1616 38.1117 97.5349 38.6915 98.0138 39.1528C98.4923 39.6138 99.0499 39.9539 99.6875 40.1728C100.324 40.3903 101.012 40.5 101.75 40.5C102.702 40.5003 103.648 40.3289 104.559 39.9915C105.476 39.6495 106.274 39.0575 106.951 38.2075C106.971 38.5227 107.006 38.833 107.055 39.1354C107.105 39.4371 107.17 39.7361 107.25 40.0259H111.554C111.355 39.6402 111.215 39.0575 111.136 38.2802C111.055 37.5047 111.016 36.6937 111.016 35.8426ZM93.5299 22.8378C93.1122 22.1706 92.5389 21.6502 91.8126 21.2732C91.0844 20.8993 90.1526 20.7115 89.0175 20.7115C88.2202 20.7115 87.4036 20.9592 86.5657 21.4573C85.7292 21.9532 85.0414 22.748 84.5039 23.8401H84.414V14.0538H80.1697V40.0259H84.414V30.1682C84.414 28.2529 84.6729 26.8775 85.1914 26.0394C85.7089 25.2037 86.5459 24.7849 87.7022 24.7849C88.718 24.7849 89.4255 25.1665 89.8242 25.9315C90.2228 26.6946 90.4219 27.8531 90.4219 29.4045V40.0261H94.6666V28.4587C94.6666 27.2955 94.5811 26.2351 94.4124 25.2753C94.2428 24.3191 93.9488 23.5056 93.5299 22.8378ZM71.1131 31.9513H71.0539L67.4076 14.054H63.0136L59.3067 31.7326H59.2473L55.8697 14.0538H51.1777L56.8264 40.0259H61.5794L65.1354 22.347H65.1954L68.812 40.0259H73.4749L79.2139 14.0538H74.6111L71.1131 31.9513ZM32.2051 32.3598C31.6557 32.0253 28.9537 30.4078 28.4501 30.1849C27.9464 29.9617 27.5801 29.85 27.2137 30.5192C26.8473 31.1888 25.7943 32.6947 25.4736 33.1405C25.1532 33.5872 24.8327 33.6431 24.283 33.3084C23.7336 32.9735 21.9629 32.2675 19.8637 29.9898C18.2301 28.2171 17.1272 26.0272 16.8068 25.3576C16.4861 24.689 16.7724 24.3272 17.0477 23.9935C17.2949 23.6942 17.5972 23.2124 17.872 22.8226C18.1466 22.4316 18.2383 22.153 18.4216 21.7065C18.6048 21.2606 18.5129 20.8696 18.3758 20.5353C18.2383 20.2004 17.1392 16.9096 16.6812 15.5712C16.2352 14.2678 15.7822 14.4438 15.4448 14.4238C15.1248 14.4037 14.7578 14.3997 14.3917 14.3997C14.0254 14.3997 13.4301 14.5677 12.9263 15.2363C12.4227 15.9057 11.0029 17.5234 11.0029 20.8139C11.0029 24.1047 12.9722 27.2841 13.247 27.7308C13.5216 28.1764 17.1219 34.9301 22.6345 37.826C23.9457 38.5147 24.9695 38.926 25.7674 39.2343C27.0838 39.743 28.2818 39.6713 29.2285 39.4993C30.2845 39.3073 32.48 37.8817 32.9378 36.3199C33.3957 34.7582 33.3957 33.42 33.2584 33.1405C33.1211 32.8619 32.7548 32.6947 32.2051 32.3598ZM22.1783 49.0166H22.1708C18.8908 49.0154 15.6733 47.9426 12.8668 45.9163L12.1994 45.4348L5.28079 47.6426L7.12753 39.4359L6.69273 38.5944C4.86287 35.0533 3.89658 30.9604 3.89791 26.7586C3.90192 14.4958 12.1025 4.51964 22.1855 4.51964C27.0679 4.52168 31.6577 6.8384 35.109 11.042C38.5604 15.2457 40.4599 20.8337 40.4582 26.7763C40.4539 39.0394 32.2537 49.0166 22.1783 49.0166ZM22.178 0C10.0555 0 0.189584 12.0031 0.184573 26.7561C0.18307 31.4725 1.1958 36.0761 3.1202 40.1332L0 54L11.6592 50.2794C14.8714 52.4108 18.4882 53.5338 22.1695 53.5354H22.1783C34.2995 53.5354 44.1666 41.5316 44.1714 26.7777C44.1738 19.6288 41.8882 12.9054 37.7357 7.8478C33.5834 2.79003 28.0613 0.00345476 22.178 0Z" fill="white"/>
</svg>
