<svg width="44" height="38" viewBox="0 0 44 38" fill="none" xmlns="http://www.w3.org/2000/svg">
<path fill-rule="evenodd" clip-rule="evenodd" d="M44 5.05309C42.3806 5.78927 40.6429 6.28854 38.8172 6.51144C40.6814 5.36619 42.1084 3.54967 42.7847 1.3918C41.036 2.45237 39.1059 3.22248 37.0492 3.63995C35.4023 1.83752 33.0597 0.714844 30.4614 0.714844C25.4766 0.714844 21.4349 4.86132 21.4349 9.97247C21.4349 10.6974 21.5146 11.4054 21.6686 12.0824C14.168 11.6959 7.51704 8.00925 3.06563 2.40723C2.2875 3.7725 1.84484 5.36332 1.84484 7.06145C1.84484 10.2743 3.43955 13.1091 5.85913 14.7676C4.37988 14.7169 2.98863 14.2994 1.77064 13.6055V13.7212C1.77064 18.2061 4.88307 21.9492 9.01002 22.8011C8.2539 23.0098 7.45657 23.1255 6.63172 23.1255C6.04886 23.1255 5.4852 23.0663 4.93254 22.9534C6.08179 26.6345 9.41422 29.3113 13.3625 29.3847C10.2748 31.867 6.38152 33.3422 2.15284 33.3422C1.42425 33.3422 0.706589 33.2971 0 33.2153C3.99502 35.847 8.7379 37.3815 13.8354 37.3815C30.4396 37.3815 39.5157 23.2722 39.5157 11.0359L39.4854 9.83713C41.2588 8.5395 42.7929 6.90914 44 5.05309Z" fill="black"/>
</svg>
