<svg width="230" height="31" viewBox="0 0 1940 208" fill="none" xmlns="http://www.w3.org/2000/svg">
<path d="M192.912 169L187.111 66.3047L161.438 169H90.7539L66.1543 69.7422L61.3203 169H0.626953L9.2207 14.957H111.809L129.963 87.252L148.654 14.957H250.168L260.373 169H192.912ZM436.76 112.818H339.006C342.515 117.688 348.101 121.448 355.764 124.098C363.426 126.747 373.273 128.072 385.305 128.072C402.779 128.072 418.462 124.348 432.355 116.9V158.795C424.621 163.307 414.738 166.959 402.707 169.752C390.747 172.545 378.072 173.941 364.68 173.941C345.057 173.941 328.156 170.934 313.977 164.918C299.868 158.831 289.126 150.344 281.75 139.459C274.374 128.574 270.686 116.005 270.686 101.754C270.686 88.1471 274.087 76.1159 280.891 65.6602C287.694 55.2044 297.541 47.0762 310.432 41.2754C323.322 35.403 338.576 32.4668 356.193 32.4668C374.383 32.4668 389.494 35.3314 401.525 41.0605C413.557 46.7181 422.437 54.6673 428.166 64.9082C433.895 75.1491 436.76 87.2161 436.76 101.109V112.818ZM359.846 74.0391C353.186 74.0391 347.85 75.4355 343.84 78.2285C339.829 81.0215 337.359 84.9245 336.428 89.9375H382.941C382.154 84.9961 379.79 81.1289 375.852 78.3359C371.984 75.4714 366.649 74.0391 359.846 74.0391ZM585.969 85.4258H548.049V169H477.58V85.4258H442.023V38.6973H477.58V17.5352L548.049 9.15625V38.6973H585.969V85.4258ZM665.998 32.4668C694.357 32.4668 715.842 39.0195 730.451 52.125C745.132 65.1589 752.473 84.0651 752.473 108.844V169H684.689V150.309C679.891 157.47 673.446 163.128 665.354 167.281C657.261 171.363 647.701 173.404 636.672 173.404C627.147 173.404 618.84 171.686 611.75 168.248C604.66 164.739 599.217 159.941 595.422 153.854C591.698 147.766 589.836 140.82 589.836 133.014C589.836 124.921 591.949 117.76 596.174 111.529C600.471 105.299 606.451 100.465 614.113 97.0273C621.776 93.5182 630.549 91.7637 640.432 91.7637C650.171 91.7637 658.514 93.2676 665.461 96.2754C672.479 99.2832 678.638 103.867 683.938 110.025C682.505 100.572 678.101 93.4108 670.725 88.541C663.42 83.6712 653.752 81.2363 641.721 81.2363C633.413 81.2363 625.106 82.6328 616.799 85.4258C608.492 88.1471 601.438 91.8353 595.637 96.4902V50.4062C604.445 44.9635 614.722 40.6309 626.467 37.4082C638.212 34.1139 651.389 32.4668 665.998 32.4668ZM667.502 141.5C672.587 141.5 676.704 140.354 679.855 138.062C683.078 135.699 684.689 132.727 684.689 129.146C684.689 125.637 683.114 122.773 679.963 120.553C676.812 118.261 672.73 117.115 667.717 117.115C662.99 117.115 659.159 118.261 656.223 120.553C653.358 122.773 651.926 125.673 651.926 129.254C651.926 132.906 653.322 135.878 656.115 138.17C658.98 140.39 662.775 141.5 667.502 141.5ZM850.979 174.049C834.149 174.049 818.645 172.115 804.465 168.248C790.357 164.309 778.182 159.117 767.941 152.672V108.307C776.965 114.322 788.137 119.264 801.457 123.131C814.849 126.998 828.169 128.932 841.418 128.932C848.436 128.932 853.485 128.359 856.564 127.213C859.715 126.067 861.291 124.169 861.291 121.52C861.291 119.156 860.217 117.33 858.068 116.041C855.992 114.752 852.196 113.714 846.682 112.926L825.412 109.811C805.432 107.018 790.5 101.718 780.617 93.9121C770.734 86.1061 765.793 75.5788 765.793 62.3301C765.793 52.0176 769.016 42.9583 775.461 35.1523C781.978 27.2747 791.932 21.1159 805.324 16.6758C818.788 12.1641 835.653 9.9082 855.92 9.9082C873.036 9.9082 887.538 11.4121 899.426 14.4199C911.385 17.4277 921.232 21.0085 928.967 25.1621V68.4531C921.59 64.7292 912.639 61.6139 902.111 59.1074C891.584 56.6009 880.018 55.3477 867.414 55.3477C858.247 55.3477 851.874 55.9922 848.293 57.2812C844.784 58.4987 843.029 60.3965 843.029 62.9746C843.029 64.2637 843.423 65.3379 844.211 66.1973C844.999 67.0566 846.503 67.8086 848.723 68.4531C851.014 69.026 854.309 69.5273 858.605 69.957L881.271 72.6426C900.464 74.791 914.895 79.446 924.562 86.6074C934.23 93.7689 939.064 104.26 939.064 118.082C939.064 129.397 935.34 139.28 927.893 147.73C920.516 156.181 910.168 162.698 896.848 167.281C883.599 171.793 868.309 174.049 850.979 174.049ZM1023.71 32.4668C1052.07 32.4668 1073.56 39.0195 1088.17 52.125C1102.85 65.1589 1110.19 84.0651 1110.19 108.844V169H1042.4V150.309C1037.61 157.47 1031.16 163.128 1023.07 167.281C1014.98 171.363 1005.42 173.404 994.387 173.404C984.862 173.404 976.555 171.686 969.465 168.248C962.375 164.739 956.932 159.941 953.137 153.854C949.413 147.766 947.551 140.82 947.551 133.014C947.551 124.921 949.663 117.76 953.889 111.529C958.186 105.299 964.165 100.465 971.828 97.0273C979.491 93.5182 988.264 91.7637 998.146 91.7637C1007.89 91.7637 1016.23 93.2676 1023.18 96.2754C1030.19 99.2832 1036.35 103.867 1041.65 110.025C1040.22 100.572 1035.82 93.4108 1028.44 88.541C1021.13 83.6712 1011.47 81.2363 999.436 81.2363C991.128 81.2363 982.821 82.6328 974.514 85.4258C966.206 88.1471 959.152 91.8353 953.352 96.4902V50.4062C962.16 44.9635 972.437 40.6309 984.182 37.4082C995.926 34.1139 1009.1 32.4668 1023.71 32.4668ZM1025.22 141.5C1030.3 141.5 1034.42 140.354 1037.57 138.062C1040.79 135.699 1042.4 132.727 1042.4 129.146C1042.4 125.637 1040.83 122.773 1037.68 120.553C1034.53 118.261 1030.44 117.115 1025.43 117.115C1020.71 117.115 1016.87 118.261 1013.94 120.553C1011.07 122.773 1009.64 125.673 1009.64 129.254C1009.64 132.906 1011.04 135.878 1013.83 138.17C1016.69 140.39 1020.49 141.5 1025.22 141.5ZM1253.49 32.4668C1266.09 32.4668 1277.01 35.5462 1286.25 41.7051C1295.49 47.8639 1302.54 56.3145 1307.41 67.0566C1312.36 77.7272 1314.83 89.7943 1314.83 103.258C1314.83 117.223 1312.28 129.54 1307.2 140.211C1302.11 150.882 1294.85 159.189 1285.39 165.133C1275.94 171.005 1264.91 173.941 1252.31 173.941C1238.77 173.941 1227.38 171.22 1218.15 165.777C1208.91 160.335 1201.93 151.741 1197.2 139.996V207.457H1126.95V38.6973H1197.2V72.8574C1200.99 59.3939 1207.55 49.2962 1216.86 42.5645C1226.24 35.8327 1238.45 32.4668 1253.49 32.4668ZM1218.9 125.279C1223.41 125.279 1227.38 124.384 1230.82 122.594C1234.26 120.732 1236.91 118.154 1238.77 114.859C1240.63 111.493 1241.56 107.626 1241.56 103.258C1241.56 98.8893 1240.63 95.0579 1238.77 91.7637C1236.91 88.4694 1234.3 85.9271 1230.93 84.1367C1227.56 82.2747 1223.62 81.3438 1219.11 81.3438C1212.31 81.3438 1206.94 83.3848 1203 87.4668C1199.06 91.4772 1197.09 96.8125 1197.09 103.473C1197.09 110.133 1199.03 115.432 1202.89 119.371C1206.76 123.31 1212.1 125.279 1218.9 125.279ZM1364.35 49.1172C1356.9 49.1172 1350.24 48.0788 1344.37 46.002C1338.57 43.9251 1334.02 41.0605 1330.72 37.4082C1327.43 33.6842 1325.78 29.459 1325.78 24.7324C1325.78 20.0775 1327.43 15.888 1330.72 12.1641C1334.02 8.4401 1338.57 5.53971 1344.37 3.46289C1350.24 1.38607 1356.9 0.347656 1364.35 0.347656C1371.58 0.347656 1378.03 1.38607 1383.68 3.46289C1389.41 5.53971 1393.85 8.4401 1397 12.1641C1400.15 15.888 1401.73 20.0775 1401.73 24.7324C1401.73 29.459 1400.15 33.6842 1397 37.4082C1393.85 41.0605 1389.41 43.9251 1383.68 46.002C1378.03 48.0788 1371.58 49.1172 1364.35 49.1172ZM1328.58 55.1328H1398.94V169H1328.58V55.1328ZM1578.44 112.818H1480.69C1484.19 117.688 1489.78 121.448 1497.44 124.098C1505.11 126.747 1514.95 128.072 1526.98 128.072C1544.46 128.072 1560.14 124.348 1574.04 116.9V158.795C1566.3 163.307 1556.42 166.959 1544.39 169.752C1532.43 172.545 1519.75 173.941 1506.36 173.941C1486.74 173.941 1469.84 170.934 1455.66 164.918C1441.55 158.831 1430.81 150.344 1423.43 139.459C1416.05 128.574 1412.37 116.005 1412.37 101.754C1412.37 88.1471 1415.77 76.1159 1422.57 65.6602C1429.37 55.2044 1439.22 47.0762 1452.11 41.2754C1465 35.403 1480.26 32.4668 1497.87 32.4668C1516.06 32.4668 1531.17 35.3314 1543.21 41.0605C1555.24 46.7181 1564.12 54.6673 1569.85 64.9082C1575.57 75.1491 1578.44 87.2161 1578.44 101.109V112.818ZM1501.53 74.0391C1494.87 74.0391 1489.53 75.4355 1485.52 78.2285C1481.51 81.0215 1479.04 84.9245 1478.11 89.9375H1524.62C1523.83 84.9961 1521.47 81.1289 1517.53 78.3359C1513.66 75.4714 1508.33 74.0391 1501.53 74.0391ZM1716.69 32.4668C1734.45 32.4668 1747.88 37.7305 1756.97 48.2578C1766.07 58.7135 1770.62 74.3255 1770.62 95.0938V169H1700.26V108.629C1700.26 92.7305 1694.28 84.7812 1682.32 84.7812C1675.73 84.7812 1670.86 86.7865 1667.71 90.7969C1664.56 94.8073 1662.98 100.859 1662.98 108.951V169H1592.73V38.6973H1662.23V74.3613C1666.74 59.9668 1673.33 49.4036 1681.99 42.6719C1690.73 35.8685 1702.3 32.4668 1716.69 32.4668ZM1863.21 173.404C1848.75 173.404 1834.71 171.757 1821.11 168.463C1807.57 165.169 1795.47 160.478 1784.8 154.391V112.926C1789.52 116.65 1795.9 120.087 1803.92 123.238C1812.01 126.318 1820.53 128.753 1829.48 130.543C1838.51 132.262 1846.78 133.121 1854.3 133.121C1858.24 133.121 1861.17 132.656 1863.11 131.725C1865.04 130.722 1866.01 129.397 1866.01 127.75C1866.01 126.031 1865.18 124.599 1863.54 123.453C1861.96 122.307 1858.7 121.269 1853.76 120.338L1832.49 116.148C1821.11 114.072 1812.05 111.279 1805.31 107.77C1798.58 104.26 1793.75 100.035 1790.81 95.0938C1787.95 90.1523 1786.52 84.3158 1786.52 77.584C1786.52 68.4173 1789.7 60.4323 1796.08 53.6289C1802.45 46.8255 1811.47 41.5977 1823.15 37.9453C1834.82 34.2214 1848.46 32.3594 1864.07 32.3594C1877.97 32.3594 1890.86 33.6842 1902.75 36.334C1914.71 38.9121 1924.34 42.1706 1931.64 46.1094V85.2109C1924.27 81.5586 1915.71 78.6224 1905.97 76.4023C1896.3 74.1823 1886.63 73.0723 1876.96 73.0723C1870.38 73.0723 1865.69 73.5736 1862.89 74.5762C1860.17 75.5072 1858.81 76.8678 1858.81 78.6582C1858.81 80.3053 1859.67 81.5586 1861.39 82.418C1863.18 83.2773 1866.29 84.0651 1870.73 84.7812L1890.93 87.3594C1901.96 88.6484 1910.95 90.7969 1917.89 93.8047C1924.91 96.7409 1930.21 101.002 1933.79 106.588C1937.37 112.174 1939.16 119.407 1939.16 128.287C1939.16 137.382 1936.3 145.331 1930.57 152.135C1924.84 158.867 1916.28 164.094 1904.89 167.818C1893.58 171.542 1879.69 173.404 1863.21 173.404Z" fill="white"/>
</svg>
